<?xml version="1.0" encoding="utf-8"?>
<!-- Generator: Adobe Illustrator 21.0.2, SVG Export Plug-In . SVG Version: 6.00 Build 0)  -->
<svg version="1.1" id="Capa_1" xmlns="http://www.w3.org/2000/svg" xmlns:xlink="http://www.w3.org/1999/xlink" x="0px" y="0px"
	 viewBox="0 0 54 54" style="enable-background:new 0 0 54 54;" xml:space="preserve">
<style type="text/css">
	.st0{fill:#C63C3C;stroke:#D32F2F;stroke-miterlimit:10;}
	.st1{fill:#C63C3C;}
	.st2{fill:#FFFFFF;}
</style>
<path class="st0" d="M1,27L1,27C1,12.6,12.6,1,27,1l0,0c14.4,0,26,11.6,26,26l0,0c0,14.4-11.6,26-26,26l0,0C12.6,53,1,41.4,1,27z"/>
<path class="st1" d="M27,0c14.9,0,27,12.1,27,27S41.9,54,27,54S0,41.9,0,27S12.1,0,27,0z M27,52c13.8,0,25-11.2,25-25S40.8,2,27,2
	S2,13.2,2,27S13.2,52,27,52z"/>
<path class="st2" d="M15,21.3c0.3,0,0.5,0.1,0.7,0.3L27,32.9l11.3-11.3c0.4-0.4,1-0.4,1.4,0s0.4,1,0,1.4L28.2,34.5
	c-0.7,0.7-1.8,0.7-2.4,0L14.3,23c-0.4-0.4-0.4-1,0-1.4C14.5,21.4,14.7,21.3,15,21.3z"/>
</svg>
